<mxfile host="app.diagrams.net" modified="2021-12-01T06:15:18.406Z" agent="5.0 (Windows NT 10.0; Win64; x64) AppleWebKit/537.36 (KHTML, like Gecko) Chrome/96.0.4664.45 Safari/537.36" etag="V8kyAgTTohGWr9tCmz3f" version="15.7.3" type="github">
  <diagram id="zmOnwcKQIsQHPDP5LsBc" name="Page-1">
    <mxGraphModel dx="1955" dy="896" grid="1" gridSize="10" guides="1" tooltips="1" connect="1" arrows="1" fold="1" page="1" pageScale="1" pageWidth="850" pageHeight="1100" math="0" shadow="0">
      <root>
        <mxCell id="0" />
        <mxCell id="1" parent="0" />
        <mxCell id="tgv3AhOZy54zYLwPiy_E-6" style="edgeStyle=orthogonalEdgeStyle;rounded=0;orthogonalLoop=1;jettySize=auto;html=1;entryX=0;entryY=0.5;entryDx=0;entryDy=0;" parent="1" source="tgv3AhOZy54zYLwPiy_E-1" target="tgv3AhOZy54zYLwPiy_E-3" edge="1">
          <mxGeometry relative="1" as="geometry" />
        </mxCell>
        <mxCell id="tgv3AhOZy54zYLwPiy_E-7" style="edgeStyle=orthogonalEdgeStyle;rounded=0;orthogonalLoop=1;jettySize=auto;html=1;" parent="1" source="tgv3AhOZy54zYLwPiy_E-1" target="tgv3AhOZy54zYLwPiy_E-5" edge="1">
          <mxGeometry relative="1" as="geometry" />
        </mxCell>
        <mxCell id="tgv3AhOZy54zYLwPiy_E-1" value="Login Page" style="swimlane;" parent="1" vertex="1">
          <mxGeometry x="40" y="140" width="180" height="200" as="geometry" />
        </mxCell>
        <mxCell id="tgv3AhOZy54zYLwPiy_E-2" value="&amp;nbsp;- UserID&lt;br&gt;- Password&lt;br&gt;&lt;br&gt;&amp;nbsp;- Register" style="text;html=1;align=center;verticalAlign=middle;resizable=0;points=[];autosize=1;strokeColor=none;fillColor=none;" parent="tgv3AhOZy54zYLwPiy_E-1" vertex="1">
          <mxGeometry x="50" y="65" width="80" height="60" as="geometry" />
        </mxCell>
        <mxCell id="tgv3AhOZy54zYLwPiy_E-3" value="Register Page" style="swimlane;" parent="1" vertex="1">
          <mxGeometry x="305" y="20" width="200" height="200" as="geometry" />
        </mxCell>
        <mxCell id="tgv3AhOZy54zYLwPiy_E-4" value="Create username and password&lt;br&gt;Collect profile information&lt;br&gt;(Store in DB)" style="text;html=1;align=center;verticalAlign=middle;resizable=0;points=[];autosize=1;strokeColor=none;fillColor=none;" parent="tgv3AhOZy54zYLwPiy_E-3" vertex="1">
          <mxGeometry x="5" y="75" width="190" height="50" as="geometry" />
        </mxCell>
        <mxCell id="tgv3AhOZy54zYLwPiy_E-5" value="Main Menu (ListView)" style="swimlane;" parent="1" vertex="1">
          <mxGeometry x="380" y="250" width="290" height="200" as="geometry" />
        </mxCell>
        <mxCell id="tgv3AhOZy54zYLwPiy_E-8" value="&amp;nbsp;- Workouts&lt;br&gt;&lt;div&gt;&lt;span&gt;&amp;nbsp;&lt;/span&gt;&lt;span style=&quot;white-space: pre&quot;&gt; &lt;/span&gt;&lt;span&gt;Muscle group presets&lt;/span&gt;&lt;/div&gt;&lt;div&gt;&lt;span&gt;&lt;span style=&quot;white-space: pre&quot;&gt; &lt;/span&gt;Weight/Reps/PR Tracker&lt;br&gt;&lt;/span&gt;&lt;/div&gt;&lt;div&gt;&lt;span&gt;&lt;span style=&quot;white-space: pre&quot;&gt; &lt;/span&gt;Single click &quot;Add New Workout Routine&quot; Button&lt;br&gt;&lt;/span&gt;&lt;/div&gt;&lt;div&gt;&lt;span&gt;&amp;nbsp;- Progress Chart (Displayed in Homepage)&lt;/span&gt;&lt;/div&gt;&lt;div&gt;&lt;span&gt;&lt;span style=&quot;white-space: pre&quot;&gt; &lt;/span&gt;Percent towards goal PRs&lt;br&gt;&lt;/span&gt;&lt;/div&gt;&lt;div&gt;&lt;span&gt;&amp;nbsp;- Weight Tracker&lt;/span&gt;&lt;/div&gt;&lt;div&gt;&lt;span&gt;&amp;nbsp;- Habit Tracker&lt;/span&gt;&lt;/div&gt;&lt;div&gt;&lt;span&gt;&amp;nbsp;- Workout Reminder&lt;/span&gt;&lt;/div&gt;&lt;div&gt;&lt;span&gt;&amp;nbsp;- Social Media&amp;nbsp;&lt;/span&gt;&lt;/div&gt;" style="text;html=1;align=left;verticalAlign=middle;resizable=0;points=[];autosize=1;strokeColor=none;fillColor=none;" parent="tgv3AhOZy54zYLwPiy_E-5" vertex="1">
          <mxGeometry y="30" width="290" height="150" as="geometry" />
        </mxCell>
        <mxCell id="tgv3AhOZy54zYLwPiy_E-16" style="edgeStyle=orthogonalEdgeStyle;rounded=0;orthogonalLoop=1;jettySize=auto;html=1;entryX=0.5;entryY=0;entryDx=0;entryDy=0;" parent="1" source="tgv3AhOZy54zYLwPiy_E-13" target="tgv3AhOZy54zYLwPiy_E-5" edge="1">
          <mxGeometry relative="1" as="geometry">
            <Array as="points">
              <mxPoint x="675" y="230" />
              <mxPoint x="505" y="230" />
            </Array>
          </mxGeometry>
        </mxCell>
        <mxCell id="tgv3AhOZy54zYLwPiy_E-13" value="Tutorial Page" style="swimlane;align=center;" parent="1" vertex="1">
          <mxGeometry x="570" y="20" width="210" height="200" as="geometry" />
        </mxCell>
        <mxCell id="tgv3AhOZy54zYLwPiy_E-14" value="Simple tutorial explaining functionalities" style="text;html=1;align=left;verticalAlign=middle;resizable=0;points=[];autosize=1;strokeColor=none;fillColor=none;" parent="tgv3AhOZy54zYLwPiy_E-13" vertex="1">
          <mxGeometry y="90" width="220" height="20" as="geometry" />
        </mxCell>
        <mxCell id="tgv3AhOZy54zYLwPiy_E-15" style="edgeStyle=orthogonalEdgeStyle;rounded=0;orthogonalLoop=1;jettySize=auto;html=1;" parent="1" source="tgv3AhOZy54zYLwPiy_E-4" target="tgv3AhOZy54zYLwPiy_E-14" edge="1">
          <mxGeometry relative="1" as="geometry" />
        </mxCell>
        <mxCell id="tgv3AhOZy54zYLwPiy_E-36" style="edgeStyle=orthogonalEdgeStyle;rounded=0;orthogonalLoop=1;jettySize=auto;html=1;entryX=0.5;entryY=0;entryDx=0;entryDy=0;" parent="1" source="tgv3AhOZy54zYLwPiy_E-17" target="tgv3AhOZy54zYLwPiy_E-27" edge="1">
          <mxGeometry relative="1" as="geometry" />
        </mxCell>
        <mxCell id="tgv3AhOZy54zYLwPiy_E-37" style="edgeStyle=orthogonalEdgeStyle;rounded=0;orthogonalLoop=1;jettySize=auto;html=1;" parent="1" source="tgv3AhOZy54zYLwPiy_E-17" target="tgv3AhOZy54zYLwPiy_E-28" edge="1">
          <mxGeometry relative="1" as="geometry">
            <Array as="points">
              <mxPoint x="150" y="730" />
              <mxPoint x="420" y="730" />
            </Array>
          </mxGeometry>
        </mxCell>
        <mxCell id="tgv3AhOZy54zYLwPiy_E-17" value="AllWorkoutsActivity" style="swimlane;align=center;" parent="1" vertex="1">
          <mxGeometry x="20" y="510" width="260" height="200" as="geometry" />
        </mxCell>
        <mxCell id="tgv3AhOZy54zYLwPiy_E-25" value="&lt;div style=&quot;text-align: left&quot;&gt;&lt;span&gt;&amp;nbsp;- List of created workout routines&lt;/span&gt;&lt;/div&gt;&lt;span style=&quot;white-space: pre&quot;&gt;&lt;div style=&quot;text-align: left&quot;&gt;&lt;span&gt; &lt;/span&gt;Dots button to &quot;Edit&quot; or &quot;Add New Workout&quot;&lt;/div&gt;&lt;div style=&quot;text-align: left&quot;&gt;&lt;span style=&quot;white-space: pre&quot;&gt; &lt;/span&gt;&quot;Add New Workout&quot; button leads to &lt;br&gt;&lt;/div&gt;&lt;div style=&quot;text-align: left&quot;&gt;&lt;span style=&quot;white-space: pre&quot;&gt; &lt;/span&gt;workout list&lt;br&gt;&lt;/div&gt;&lt;div style=&quot;text-align: left&quot;&gt; - Create New Routine button&lt;/div&gt;&lt;/span&gt;" style="text;html=1;strokeColor=none;fillColor=none;align=center;verticalAlign=middle;whiteSpace=wrap;rounded=0;" parent="tgv3AhOZy54zYLwPiy_E-17" vertex="1">
          <mxGeometry x="70" y="72.5" width="130" height="50" as="geometry" />
        </mxCell>
        <mxCell id="tgv3AhOZy54zYLwPiy_E-18" value="Weight Progress Chart" style="swimlane;align=center;" parent="1" vertex="1">
          <mxGeometry x="310" y="510" width="210" height="200" as="geometry" />
        </mxCell>
        <mxCell id="tgv3AhOZy54zYLwPiy_E-20" value="&amp;nbsp;- Lifting Weights Chart&lt;br&gt;&lt;div&gt;&lt;span&gt;&amp;nbsp;- Personal Weight Chart&lt;/span&gt;&lt;/div&gt;" style="text;html=1;strokeColor=none;fillColor=none;align=left;verticalAlign=middle;whiteSpace=wrap;rounded=0;" parent="tgv3AhOZy54zYLwPiy_E-18" vertex="1">
          <mxGeometry x="35" y="85" width="140" height="30" as="geometry" />
        </mxCell>
        <mxCell id="tgv3AhOZy54zYLwPiy_E-19" value="Habit Tracker" style="swimlane;align=center;" parent="1" vertex="1">
          <mxGeometry x="590" y="510" width="210" height="200" as="geometry" />
        </mxCell>
        <mxCell id="tgv3AhOZy54zYLwPiy_E-24" value="&lt;div style=&quot;text-align: left&quot;&gt;&lt;span&gt;&amp;nbsp;- Ask how often user wants to workout per time period&lt;/span&gt;&lt;/div&gt;&lt;div style=&quot;text-align: left&quot;&gt;&lt;span&gt;&amp;nbsp;- Ask general times for daily workouts to set reminders and what workout routines to do&lt;/span&gt;&lt;/div&gt;&lt;div style=&quot;text-align: left&quot;&gt;&lt;span&gt;&amp;nbsp;- Ask hydration goals&lt;/span&gt;&lt;/div&gt;" style="text;html=1;strokeColor=none;fillColor=none;align=center;verticalAlign=middle;whiteSpace=wrap;rounded=0;" parent="tgv3AhOZy54zYLwPiy_E-19" vertex="1">
          <mxGeometry x="20" y="77.5" width="180" height="45" as="geometry" />
        </mxCell>
        <mxCell id="tgv3AhOZy54zYLwPiy_E-21" style="edgeStyle=orthogonalEdgeStyle;rounded=0;orthogonalLoop=1;jettySize=auto;html=1;entryX=0.5;entryY=0;entryDx=0;entryDy=0;" parent="1" source="tgv3AhOZy54zYLwPiy_E-8" target="tgv3AhOZy54zYLwPiy_E-17" edge="1">
          <mxGeometry relative="1" as="geometry">
            <Array as="points">
              <mxPoint x="525" y="480" />
              <mxPoint x="140" y="480" />
              <mxPoint x="140" y="510" />
            </Array>
          </mxGeometry>
        </mxCell>
        <mxCell id="tgv3AhOZy54zYLwPiy_E-22" style="edgeStyle=orthogonalEdgeStyle;rounded=0;orthogonalLoop=1;jettySize=auto;html=1;" parent="1" source="tgv3AhOZy54zYLwPiy_E-8" target="tgv3AhOZy54zYLwPiy_E-18" edge="1">
          <mxGeometry relative="1" as="geometry">
            <Array as="points">
              <mxPoint x="525" y="480" />
              <mxPoint x="415" y="480" />
            </Array>
          </mxGeometry>
        </mxCell>
        <mxCell id="tgv3AhOZy54zYLwPiy_E-23" style="edgeStyle=orthogonalEdgeStyle;rounded=0;orthogonalLoop=1;jettySize=auto;html=1;entryX=0.5;entryY=0;entryDx=0;entryDy=0;" parent="1" source="tgv3AhOZy54zYLwPiy_E-8" target="tgv3AhOZy54zYLwPiy_E-19" edge="1">
          <mxGeometry relative="1" as="geometry">
            <Array as="points">
              <mxPoint x="525" y="480" />
              <mxPoint x="695" y="480" />
            </Array>
          </mxGeometry>
        </mxCell>
        <mxCell id="tgv3AhOZy54zYLwPiy_E-41" style="edgeStyle=orthogonalEdgeStyle;rounded=0;orthogonalLoop=1;jettySize=auto;html=1;entryX=0.476;entryY=0.05;entryDx=0;entryDy=0;entryPerimeter=0;" parent="1" source="tgv3AhOZy54zYLwPiy_E-27" target="tgv3AhOZy54zYLwPiy_E-30" edge="1">
          <mxGeometry relative="1" as="geometry" />
        </mxCell>
        <mxCell id="tgv3AhOZy54zYLwPiy_E-27" value="WorkoutCreateActivity" style="swimlane;align=center;" parent="1" vertex="1">
          <mxGeometry x="20" y="750" width="200" height="200" as="geometry" />
        </mxCell>
        <mxCell id="tgv3AhOZy54zYLwPiy_E-29" value="&amp;nbsp;- Select exercises button" style="text;html=1;strokeColor=none;fillColor=none;align=left;verticalAlign=middle;whiteSpace=wrap;rounded=0;" parent="tgv3AhOZy54zYLwPiy_E-27" vertex="1">
          <mxGeometry x="30" y="50" width="140" height="30" as="geometry" />
        </mxCell>
        <mxCell id="tgv3AhOZy54zYLwPiy_E-35" style="edgeStyle=orthogonalEdgeStyle;rounded=0;orthogonalLoop=1;jettySize=auto;html=1;exitX=0.5;exitY=1;exitDx=0;exitDy=0;" parent="1" source="tgv3AhOZy54zYLwPiy_E-28" edge="1">
          <mxGeometry relative="1" as="geometry">
            <mxPoint x="230" y="1080" as="targetPoint" />
            <Array as="points">
              <mxPoint x="420" y="970" />
              <mxPoint x="300" y="970" />
              <mxPoint x="300" y="1080" />
            </Array>
          </mxGeometry>
        </mxCell>
        <mxCell id="UToVVFBdr0eM3b9vEzug-3" style="edgeStyle=orthogonalEdgeStyle;rounded=0;orthogonalLoop=1;jettySize=auto;html=1;" parent="1" source="tgv3AhOZy54zYLwPiy_E-28" target="UToVVFBdr0eM3b9vEzug-1" edge="1">
          <mxGeometry relative="1" as="geometry" />
        </mxCell>
        <mxCell id="tgv3AhOZy54zYLwPiy_E-28" value="WorkoutViewActivity" style="swimlane;align=center;" parent="1" vertex="1">
          <mxGeometry x="290" y="750" width="260" height="200" as="geometry" />
        </mxCell>
        <mxCell id="tgv3AhOZy54zYLwPiy_E-34" value="&amp;nbsp;- Exercise list&lt;br&gt;&lt;span style=&quot;white-space: pre&quot;&gt; &lt;/span&gt;Exercise -&amp;gt; Dots button to Edit Sets&lt;br&gt;&lt;span style=&quot;white-space: pre&quot;&gt; &lt;/span&gt;&amp;nbsp; &amp;nbsp; &amp;nbsp; &amp;nbsp; &amp;nbsp; &amp;nbsp; &amp;nbsp; &amp;nbsp;-&amp;gt; Edit Sets button stores rep and &lt;span style=&quot;white-space: pre&quot;&gt; &lt;/span&gt;&amp;nbsp; &amp;nbsp; &amp;nbsp; &amp;nbsp; &amp;nbsp; &amp;nbsp; &amp;nbsp; &amp;nbsp;weight history&lt;br&gt;&amp;nbsp;- Add New Workout button" style="text;html=1;strokeColor=none;fillColor=none;align=left;verticalAlign=middle;whiteSpace=wrap;rounded=0;" parent="tgv3AhOZy54zYLwPiy_E-28" vertex="1">
          <mxGeometry x="30" y="60" width="270" height="30" as="geometry" />
        </mxCell>
        <mxCell id="tgv3AhOZy54zYLwPiy_E-42" style="edgeStyle=orthogonalEdgeStyle;rounded=0;orthogonalLoop=1;jettySize=auto;html=1;" parent="1" source="tgv3AhOZy54zYLwPiy_E-30" target="tgv3AhOZy54zYLwPiy_E-32" edge="1">
          <mxGeometry relative="1" as="geometry" />
        </mxCell>
        <mxCell id="tgv3AhOZy54zYLwPiy_E-30" value="ExerciseListActivity" style="swimlane;align=center;" parent="1" vertex="1">
          <mxGeometry x="20" y="990" width="210" height="200" as="geometry" />
        </mxCell>
        <mxCell id="tgv3AhOZy54zYLwPiy_E-31" value="&amp;nbsp;- Preset list (Group by Muscle groups)&lt;br&gt;&amp;nbsp;- Custom Exercise button" style="text;html=1;strokeColor=none;fillColor=none;align=left;verticalAlign=middle;whiteSpace=wrap;rounded=0;" parent="tgv3AhOZy54zYLwPiy_E-30" vertex="1">
          <mxGeometry x="30" y="85" width="150" height="30" as="geometry" />
        </mxCell>
        <mxCell id="tgv3AhOZy54zYLwPiy_E-32" value="ExerciseCreateActivity" style="swimlane;align=center;startSize=23;" parent="1" vertex="1">
          <mxGeometry x="20" y="1210" width="200" height="200" as="geometry" />
        </mxCell>
        <mxCell id="tgv3AhOZy54zYLwPiy_E-33" value="&lt;div style=&quot;text-align: left&quot;&gt;&lt;span&gt;&amp;nbsp;- Movement name&amp;nbsp;&lt;/span&gt;&lt;/div&gt;&lt;div style=&quot;text-align: left&quot;&gt;&lt;span&gt;&amp;nbsp;- Choose muscle group&lt;/span&gt;&lt;/div&gt;&lt;div style=&quot;text-align: left&quot;&gt;&lt;span&gt;&amp;nbsp;- Picture&amp;nbsp;&lt;/span&gt;&lt;/div&gt;&lt;div style=&quot;text-align: left&quot;&gt;&lt;span&gt;&amp;nbsp;- Sets x Reps (Matrix Object)&lt;/span&gt;&lt;/div&gt;" style="text;html=1;strokeColor=none;fillColor=none;align=center;verticalAlign=middle;whiteSpace=wrap;rounded=0;" parent="tgv3AhOZy54zYLwPiy_E-32" vertex="1">
          <mxGeometry x="25" y="85" width="160" height="30" as="geometry" />
        </mxCell>
        <mxCell id="UToVVFBdr0eM3b9vEzug-4" style="edgeStyle=orthogonalEdgeStyle;rounded=0;orthogonalLoop=1;jettySize=auto;html=1;" parent="1" source="tgv3AhOZy54zYLwPiy_E-43" target="tgv3AhOZy54zYLwPiy_E-46" edge="1">
          <mxGeometry relative="1" as="geometry">
            <Array as="points">
              <mxPoint x="610" y="850" />
              <mxPoint x="610" y="1360" />
            </Array>
          </mxGeometry>
        </mxCell>
        <mxCell id="UToVVFBdr0eM3b9vEzug-5" style="edgeStyle=orthogonalEdgeStyle;rounded=0;orthogonalLoop=1;jettySize=auto;html=1;entryX=0;entryY=0.5;entryDx=0;entryDy=0;" parent="1" source="tgv3AhOZy54zYLwPiy_E-43" target="tgv3AhOZy54zYLwPiy_E-52" edge="1">
          <mxGeometry relative="1" as="geometry">
            <Array as="points">
              <mxPoint x="610" y="850" />
              <mxPoint x="610" y="1540" />
            </Array>
          </mxGeometry>
        </mxCell>
        <mxCell id="UToVVFBdr0eM3b9vEzug-6" style="edgeStyle=orthogonalEdgeStyle;rounded=0;orthogonalLoop=1;jettySize=auto;html=1;entryX=0;entryY=0.5;entryDx=0;entryDy=0;" parent="1" source="tgv3AhOZy54zYLwPiy_E-43" target="tgv3AhOZy54zYLwPiy_E-48" edge="1">
          <mxGeometry relative="1" as="geometry">
            <Array as="points">
              <mxPoint x="610" y="850" />
              <mxPoint x="610" y="1090" />
            </Array>
          </mxGeometry>
        </mxCell>
        <mxCell id="tgv3AhOZy54zYLwPiy_E-43" value="Social Media" style="swimlane;align=center;" parent="1" vertex="1">
          <mxGeometry x="630" y="750" width="220" height="200" as="geometry" />
        </mxCell>
        <mxCell id="tgv3AhOZy54zYLwPiy_E-44" value="&amp;nbsp;- Friends list button&lt;br&gt;&lt;span style=&quot;white-space: pre&quot;&gt; &lt;/span&gt;Dot Button to add friends&lt;br&gt;&amp;nbsp;- Feed&lt;br&gt;&amp;nbsp;- Profile page button&lt;br&gt;&lt;span style=&quot;white-space: pre&quot;&gt; &lt;/span&gt;Status&lt;br&gt;&lt;span style=&quot;white-space: pre&quot;&gt; &lt;/span&gt;PRs&lt;br&gt;&lt;span style=&quot;white-space: pre&quot;&gt; &lt;/span&gt;Options to include weight/height&lt;br&gt;&amp;nbsp;- Add new post&lt;br&gt;&lt;span style=&quot;white-space: pre&quot;&gt; &lt;/span&gt;Auto post feature" style="text;html=1;strokeColor=none;fillColor=none;align=left;verticalAlign=middle;whiteSpace=wrap;rounded=0;" parent="tgv3AhOZy54zYLwPiy_E-43" vertex="1">
          <mxGeometry x="10" y="85" width="200" height="30" as="geometry" />
        </mxCell>
        <mxCell id="tgv3AhOZy54zYLwPiy_E-45" style="edgeStyle=orthogonalEdgeStyle;rounded=0;orthogonalLoop=1;jettySize=auto;html=1;entryX=0.5;entryY=0;entryDx=0;entryDy=0;" parent="1" target="tgv3AhOZy54zYLwPiy_E-43" edge="1">
          <mxGeometry relative="1" as="geometry">
            <Array as="points">
              <mxPoint x="525" y="480" />
              <mxPoint x="560" y="480" />
              <mxPoint x="560" y="730" />
              <mxPoint x="740" y="730" />
            </Array>
            <mxPoint x="525" y="430" as="sourcePoint" />
          </mxGeometry>
        </mxCell>
        <mxCell id="tgv3AhOZy54zYLwPiy_E-46" value="Friends List" style="swimlane;align=center;" parent="1" vertex="1">
          <mxGeometry x="635" y="1210" width="200" height="200" as="geometry" />
        </mxCell>
        <mxCell id="tgv3AhOZy54zYLwPiy_E-47" value="&lt;div style=&quot;text-align: left&quot;&gt;&lt;span&gt;&amp;nbsp;- Friends list&lt;/span&gt;&lt;/div&gt;&lt;div style=&quot;text-align: left&quot;&gt;&lt;span&gt;&amp;nbsp;- Add friend&lt;/span&gt;&lt;/div&gt;" style="text;html=1;strokeColor=none;fillColor=none;align=center;verticalAlign=middle;whiteSpace=wrap;rounded=0;" parent="tgv3AhOZy54zYLwPiy_E-46" vertex="1">
          <mxGeometry x="45" y="60" width="100" height="80" as="geometry" />
        </mxCell>
        <mxCell id="tgv3AhOZy54zYLwPiy_E-48" value="User Profile Page" style="swimlane;align=center;" parent="1" vertex="1">
          <mxGeometry x="630" y="990" width="210" height="200" as="geometry" />
        </mxCell>
        <mxCell id="tgv3AhOZy54zYLwPiy_E-49" value="&amp;nbsp;- Edit Button&lt;br&gt;&lt;span&gt;&amp;nbsp;- Status&lt;/span&gt;&lt;br&gt;&lt;span&gt;&lt;/span&gt;&lt;span&gt;&amp;nbsp;- PRs&lt;/span&gt;&lt;br&gt;&lt;span&gt;&lt;/span&gt;&lt;span&gt;&amp;nbsp;- Options to include weight/height&lt;/span&gt;" style="text;html=1;strokeColor=none;fillColor=none;align=left;verticalAlign=middle;whiteSpace=wrap;rounded=0;" parent="tgv3AhOZy54zYLwPiy_E-48" vertex="1">
          <mxGeometry x="10" y="80" width="200" height="30" as="geometry" />
        </mxCell>
        <mxCell id="tgv3AhOZy54zYLwPiy_E-52" value="Add Post" style="swimlane;align=center;" parent="1" vertex="1">
          <mxGeometry x="635" y="1440" width="200" height="200" as="geometry" />
        </mxCell>
        <mxCell id="tgv3AhOZy54zYLwPiy_E-53" value="&lt;div style=&quot;text-align: left&quot;&gt;&lt;span&gt;&amp;nbsp;- Title&lt;/span&gt;&lt;/div&gt;&lt;div style=&quot;text-align: left&quot;&gt;&lt;span&gt;&amp;nbsp;- PR and Exercise&lt;/span&gt;&lt;/div&gt;&lt;div style=&quot;text-align: left&quot;&gt;&lt;span&gt;&amp;nbsp;- Photo&lt;/span&gt;&lt;/div&gt;&lt;div style=&quot;text-align: left&quot;&gt;&lt;span&gt;&amp;nbsp;- Description&lt;/span&gt;&lt;/div&gt;" style="text;html=1;strokeColor=none;fillColor=none;align=center;verticalAlign=middle;whiteSpace=wrap;rounded=0;" parent="tgv3AhOZy54zYLwPiy_E-52" vertex="1">
          <mxGeometry x="42.5" y="67.5" width="115" height="65" as="geometry" />
        </mxCell>
        <mxCell id="1iLiF3XhTbLnf349SCtz-3" value="" style="edgeStyle=orthogonalEdgeStyle;rounded=0;orthogonalLoop=1;jettySize=auto;html=1;entryX=0.5;entryY=0;entryDx=0;entryDy=0;" edge="1" parent="1" source="UToVVFBdr0eM3b9vEzug-1" target="1iLiF3XhTbLnf349SCtz-1">
          <mxGeometry relative="1" as="geometry" />
        </mxCell>
        <mxCell id="UToVVFBdr0eM3b9vEzug-1" value="ExerciseViewActivity" style="swimlane;" parent="1" vertex="1">
          <mxGeometry x="370" y="990" width="200" height="200" as="geometry" />
        </mxCell>
        <mxCell id="UToVVFBdr0eM3b9vEzug-2" value="View Sets Reps and Weight" style="text;html=1;strokeColor=none;fillColor=none;align=center;verticalAlign=middle;whiteSpace=wrap;rounded=0;" parent="UToVVFBdr0eM3b9vEzug-1" vertex="1">
          <mxGeometry x="47.5" y="85" width="105" height="30" as="geometry" />
        </mxCell>
        <mxCell id="1iLiF3XhTbLnf349SCtz-1" value="ExerciseEditActivity" style="swimlane;" vertex="1" parent="1">
          <mxGeometry x="370" y="1210" width="200" height="200" as="geometry" />
        </mxCell>
        <mxCell id="1iLiF3XhTbLnf349SCtz-2" value="Edit sets reps and weights per exercise" style="text;html=1;strokeColor=none;fillColor=none;align=center;verticalAlign=middle;whiteSpace=wrap;rounded=0;" vertex="1" parent="1iLiF3XhTbLnf349SCtz-1">
          <mxGeometry x="47.5" y="85" width="105" height="30" as="geometry" />
        </mxCell>
      </root>
    </mxGraphModel>
  </diagram>
</mxfile>
